<svg xmlns="http://www.w3.org/2000/svg" width="64" height="64" viewBox="0 0 64 64" fill="none" shape-rendering="crispEdges" aria-label="EDEV icon">
  <title>EDEV Pixel E</title>
  <!-- Clean, crisp pixel E only (no glow, no outer dots) -->
  <!-- vertical spine -->
  <rect x="8" y="8" width="8" height="8" fill="#2563EB"/>
  <rect x="8" y="16" width="8" height="8" fill="#2563EB"/>
  <rect x="8" y="24" width="8" height="8" fill="#2563EB"/>
  <rect x="8" y="32" width="8" height="8" fill="#2563EB"/>
  <rect x="8" y="40" width="8" height="8" fill="#2563EB"/>
  <rect x="8" y="48" width="8" height="8" fill="#2563EB"/>
  <rect x="8" y="56" width="8" height="8" fill="#2563EB"/>

  <!-- top bar -->
  <rect x="16" y="8" width="8" height="8" fill="#2563EB"/>
  <rect x="24" y="8" width="8" height="8" fill="#2563EB"/>
  <rect x="32" y="8" width="8" height="8" fill="#2563EB"/>
  <rect x="40" y="8" width="8" height="8" fill="#2563EB"/>
  <rect x="48" y="8" width="8" height="8" fill="#2563EB"/>
  <!-- top bar highlight (one shade lighter) -->
  <rect x="16" y="8" width="8" height="2" fill="#3B82F6"/>
  <rect x="24" y="8" width="8" height="2" fill="#3B82F6"/>
  <rect x="32" y="8" width="8" height="2" fill="#3B82F6"/>
  <rect x="40" y="8" width="8" height="2" fill="#3B82F6"/>
  <rect x="48" y="8" width="8" height="2" fill="#3B82F6"/>

  <!-- middle bar -->
  <rect x="16" y="32" width="8" height="8" fill="#2563EB"/>
  <rect x="24" y="32" width="8" height="8" fill="#2563EB"/>
  <rect x="32" y="32" width="8" height="8" fill="#2563EB"/>
  <rect x="40" y="32" width="8" height="8" fill="#2563EB"/>
  <!-- middle bar highlight (one shade lighter) -->
  <rect x="16" y="32" width="8" height="2" fill="#3B82F6"/>
  <rect x="24" y="32" width="8" height="2" fill="#3B82F6"/>
  <rect x="32" y="32" width="8" height="2" fill="#3B82F6"/>
  <rect x="40" y="32" width="8" height="2" fill="#3B82F6"/>

  <!-- bottom bar -->
  <rect x="16" y="56" width="8" height="8" fill="#2563EB"/>
  <rect x="24" y="56" width="8" height="8" fill="#2563EB"/>
  <rect x="32" y="56" width="8" height="8" fill="#2563EB"/>
  <rect x="40" y="56" width="8" height="8" fill="#2563EB"/>
  <rect x="48" y="56" width="8" height="8" fill="#2563EB"/>
  <!-- bottom bar highlight (one shade lighter) -->
  <rect x="16" y="56" width="8" height="2" fill="#3B82F6"/>
  <rect x="24" y="56" width="8" height="2" fill="#3B82F6"/>
  <rect x="32" y="56" width="8" height="2" fill="#3B82F6"/>
  <rect x="40" y="56" width="8" height="2" fill="#3B82F6"/>
  <rect x="48" y="56" width="8" height="2" fill="#3B82F6"/>
</svg>
